<!--?xml version="1.0" standalone="no"?-->
              <svg id="sw-js-blob-svg" viewBox="0 0 100 100" xmlns="http://www.w3.org/2000/svg" version="1.1">
                    <defs> 
                        <linearGradient id="sw-gradient" x1="0" x2="1" y1="1" y2="0">
                            <stop id="stop1" stop-color="rgba(238.575, 223.948, 249.379, 1)" offset="0%"></stop>
                            <stop id="stop2" stop-color="rgba(249.015, 241.953, 255, 1)" offset="100%"></stop>
                        </linearGradient>
                    </defs>
                <path fill="url(#sw-gradient)" d="M22,-26.6C29.5,-20,37,-13.9,40.3,-5.6C43.7,2.8,42.7,13.4,37.8,21.6C32.8,29.8,23.9,35.5,14.6,38.1C5.2,40.7,-4.6,40.1,-13.4,36.9C-22.2,33.6,-29.9,27.7,-33.7,20C-37.5,12.3,-37.4,2.9,-35.9,-6.5C-34.4,-15.8,-31.6,-25.1,-25.4,-31.8C-19.2,-38.6,-9.6,-42.8,-1.2,-41.5C7.3,-40.1,14.6,-33.1,22,-26.6Z" width="100%" height="100%" transform="translate(50 50)" stroke-width="0" style="transition: all 0.3s ease 0s;"></path>
              </svg>